{
  "asset": {
    "version": "2.0",
    "generator": "GLTFExporter"
  },
  "scenes": [
    {
      "name": "Scene",
      "nodes": [
        10,
        11
      ]
    }
  ],
  "scene": 0,
  "nodes": [
    {
      "name": "GOOSE",
      "mesh": 0
    },
    {
      "name": "GOOSE_1",
      "mesh": 1
    },
    {
      "matrix": [
        1.0299444198608398,
        0,
        0,
        0,
        0,
        1.0299444198608398,
        0,
        0,
        0,
        0,
        1.0299445390701294,
        0,
        0,
        0.3233909606933594,
        -0.00178930361289531,
        1
      ],
      "name": "GOOSE003",
      "extras": {
        "name": "GOOSE.003"
      },
      "mesh": 2
    },
    {
      "matrix": [
        0.015559757128357887,
        0,
        0,
        0,
        0,
        0.03339544865744357,
        -0.011863015458865053,
        0,
        0,
        0.0060765549970285,
        0.0171060453491824,
        0,
        -0.0008215904235839844,
        0.3374369740486145,
        -0.009099158458411694,
        1
      ],
      "name": "Plane001",
      "extras": {
        "name": "Plane.001"
      },
      "mesh": 3
    },
    {
      "matrix": [
        1.8150961894317732,
        0,
        0.5919368836816342,
        0,
        -0.5919368836816342,
        -7.153413772824857e-8,
        1.815096260965911,
        0,
        0,
        -1.9091788053598213,
        -7.153413772824857e-8,
        0,
        0.40938904881477356,
        1.1182743310928345,
        0.8698199987411499,
        1
      ],
      "name": "GOOSE001",
      "extras": {
        "name": "GOOSE.001"
      },
      "children": [
        0,
        1,
        2,
        3
      ]
    },
    {
      "name": "GOOSE",
      "mesh": 4
    },
    {
      "name": "GOOSE_1",
      "mesh": 1
    },
    {
      "matrix": [
        1.0299444198608398,
        0,
        0,
        0,
        0,
        1.0299444198608398,
        0,
        0,
        0,
        0,
        1.0299445390701294,
        0,
        0,
        0.3233909010887146,
        -0.0017893213080242276,
        1
      ],
      "name": "GOOSE005",
      "extras": {
        "name": "GOOSE.005"
      },
      "mesh": 2
    },
    {
      "matrix": [
        0.015559757128357887,
        0,
        0,
        0,
        0,
        0.03339544865744357,
        -0.011863015458865053,
        0,
        0,
        0.0060765549970285,
        0.0171060453491824,
        0,
        -0.000821530818939209,
        0.3374369740486145,
        -0.009099146351218224,
        1
      ],
      "name": "Plane002",
      "extras": {
        "name": "Plane.002"
      },
      "mesh": 3
    },
    {
      "matrix": [
        1.8150961894317732,
        0,
        0.5919368836816342,
        0,
        -0.5919368836816342,
        -7.153413772824857e-8,
        1.815096260965911,
        0,
        0,
        -1.9091788053598213,
        -7.153413772824857e-8,
        0,
        -0.10054072737693787,
        0.741950273513794,
        1.5476292371749878,
        1
      ],
      "name": "GOOSE004",
      "extras": {
        "name": "GOOSE.004"
      },
      "children": [
        5,
        6,
        7,
        8
      ]
    },
    {
      "matrix": [
        4,
        0,
        0,
        0,
        0,
        4,
        0,
        0,
        0,
        0,
        4,
        0,
        0,
        0,
        0,
        1
      ],
      "name": "gusi-lebedi.gltf",
      "children": [
        4,
        9
      ]
    },
    {
      "matrix": [
        1,
        0,
        0,
        0,
        0,
        1,
        0,
        0,
        0,
        0,
        1,
        0,
        -2.701174762005731,
        1.6960621361281156,
        0,
        1
      ],
      "name": "PointLight",
      "extensions": {
        "KHR_lights_punctual": {
          "light": 0
        }
      }
    }
  ],
  "bufferViews": [
    {
      "buffer": 0,
      "byteOffset": 0,
      "byteLength": 34080,
      "target": 34962,
      "byteStride": 12
    },
    {
      "buffer": 0,
      "byteOffset": 34080,
      "byteLength": 34080,
      "target": 34962,
      "byteStride": 12
    },
    {
      "buffer": 0,
      "byteOffset": 68160,
      "byteLength": 34440,
      "target": 34963
    },
    {
      "buffer": 0,
      "byteOffset": 102600,
      "byteLength": 10560,
      "target": 34962,
      "byteStride": 12
    },
    {
      "buffer": 0,
      "byteOffset": 113160,
      "byteLength": 10560,
      "target": 34962,
      "byteStride": 12
    },
    {
      "buffer": 0,
      "byteOffset": 123720,
      "byteLength": 10272,
      "target": 34963
    },
    {
      "buffer": 0,
      "byteOffset": 133992,
      "byteLength": 2352,
      "target": 34962,
      "byteStride": 12
    },
    {
      "buffer": 0,
      "byteOffset": 136344,
      "byteLength": 2352,
      "target": 34962,
      "byteStride": 12
    },
    {
      "buffer": 0,
      "byteOffset": 138696,
      "byteLength": 2088,
      "target": 34963
    },
    {
      "buffer": 0,
      "byteOffset": 140784,
      "byteLength": 540,
      "target": 34962,
      "byteStride": 12
    },
    {
      "buffer": 0,
      "byteOffset": 141324,
      "byteLength": 540,
      "target": 34962,
      "byteStride": 12
    },
    {
      "buffer": 0,
      "byteOffset": 141864,
      "byteLength": 336,
      "target": 34963
    }
  ],
  "buffers": [
    {
      "byteLength": 142200,
      "uri": "data:application/octet-stream;base64,"
    }
  ],
  "accessors": [
    {
      "bufferView": 0,
      "componentType": 5126,
      "count": 2840,
      "max": [
        0.5941939949989319,
        0.33725500106811523,
        0.07449500262737274
      ],
      "min": [
        -0.5941939949989319,
        -0.2842020094394684,
        -0.07449500262737274
      ],
      "type": "VEC3"
    },
    {
      "bufferView": 1,
      "componentType": 5126,
      "count": 2840,
      "max": [
        0.9996337890625,
        0.99920654296875,
        0.999969482421875
      ],
      "min": [
        -0.9996337890625,
        -0.9879451990127563,
        -0.999847412109375
      ],
      "type": "VEC3"
    },
    {
      "bufferView": 2,
      "componentType": 5123,
      "count": 17220,
      "max": [
        2839
      ],
      "min": [
        0
      ],
      "type": "SCALAR"
    },
    {
      "bufferView": 3,
      "componentType": 5126,
      "count": 880,
      "max": [
        0.03543639928102493,
        0.3939470052719116,
        0.07142339646816254
      ],
      "min": [
        -0.03543639928102493,
        -0.16976000368595123,
        -0.0022789600770920515
      ],
      "type": "VEC3"
    },
    {
      "bufferView": 4,
      "componentType": 5126,
      "count": 880,
      "max": [
        0.99993896484375,
        0.9899899363517761,
        0.999847412109375
      ],
      "min": [
        -0.99993896484375,
        -0.9939268231391907,
        -0.99951171875
      ],
      "type": "VEC3"
    },
    {
      "bufferView": 5,
      "componentType": 5123,
      "count": 5136,
      "max": [
        879
      ],
      "min": [
        0
      ],
      "type": "SCALAR"
    },
    {
      "bufferView": 6,
      "componentType": 5126,
      "count": 196,
      "max": [
        0.01738869771361351,
        0.003925681114196777,
        0.004064613021910191
      ],
      "min": [
        -0.01738870143890381,
        -0.004224330186843872,
        -0.003105307463556528
      ],
      "type": "VEC3"
    },
    {
      "bufferView": 7,
      "componentType": 5126,
      "count": 196,
      "max": [
        0.9936216473579407,
        0.9891964197158813,
        0.7638477683067322
      ],
      "min": [
        -0.9936216473579407,
        -0.9501022100448608,
        -0.9945676922798157
      ],
      "type": "VEC3"
    },
    {
      "bufferView": 8,
      "componentType": 5123,
      "count": 1044,
      "max": [
        195
      ],
      "min": [
        0
      ],
      "type": "SCALAR"
    },
    {
      "bufferView": 9,
      "componentType": 5126,
      "count": 45,
      "max": [
        1.6089128255844116,
        -0.012797743082046509,
        0.8939310312271118
      ],
      "min": [
        -1.5033081769943237,
        -1.2281482219696045,
        -0.34439530968666077
      ],
      "type": "VEC3"
    },
    {
      "bufferView": 10,
      "componentType": 5126,
      "count": 45,
      "max": [
        0.8392895460128784,
        0.99957275390625,
        -0.028199102729558945
      ],
      "min": [
        -0.8392895460128784,
        0.37583544850349426,
        -0.44865259528160095
      ],
      "type": "VEC3"
    },
    {
      "bufferView": 11,
      "componentType": 5123,
      "count": 168,
      "max": [
        44
      ],
      "min": [
        0
      ],
      "type": "SCALAR"
    }
  ],
  "materials": [
    {
      "pbrMetallicRoughness": {
        "baseColorFactor": [
          0.17254901960784313,
          0.3137254901960784,
          0.8431372549019608,
          1
        ],
        "metallicFactor": 0.5,
        "roughnessFactor": 0.5
      },
      "doubleSided": true,
      "name": "goosetoon"
    },
    {
      "pbrMetallicRoughness": {
        "baseColorFactor": [
          0.7991032004356384,
          0.13563327491283417,
          0,
          1
        ],
        "metallicFactor": 0,
        "roughnessFactor": 0
      },
      "emissiveFactor": [
        0.7991030216217041,
        0.13563327491283417,
        0
      ],
      "doubleSided": true,
      "name": "skin"
    },
    {
      "pbrMetallicRoughness": {
        "metallicFactor": 0,
        "roughnessFactor": 0
      },
      "emissiveFactor": [
        1,
        1,
        1
      ],
      "doubleSided": true,
      "name": "eyes"
    },
    {
      "pbrMetallicRoughness": {
        "baseColorFactor": [
          0.0000674176262691617,
          0.00008587801130488515,
          0.0005154921673238277,
          1
        ],
        "metallicFactor": 0.8085106611251831,
        "roughnessFactor": 0.5
      },
      "doubleSided": true,
      "name": "mask"
    },
    {
      "pbrMetallicRoughness": {
        "baseColorFactor": [
          0.17254901960784313,
          0.3137254901960784,
          0.8431372549019608,
          1
        ],
        "metallicFactor": 0.5,
        "roughnessFactor": 0.5
      },
      "doubleSided": true,
      "name": "goosetoon"
    }
  ],
  "meshes": [
    {
      "primitives": [
        {
          "mode": 4,
          "attributes": {
            "POSITION": 0,
            "NORMAL": 1
          },
          "indices": 2,
          "material": 0
        }
      ]
    },
    {
      "primitives": [
        {
          "mode": 4,
          "attributes": {
            "POSITION": 3,
            "NORMAL": 4
          },
          "indices": 5,
          "material": 1
        }
      ]
    },
    {
      "primitives": [
        {
          "mode": 4,
          "attributes": {
            "POSITION": 6,
            "NORMAL": 7
          },
          "indices": 8,
          "material": 2
        }
      ]
    },
    {
      "primitives": [
        {
          "mode": 4,
          "attributes": {
            "POSITION": 9,
            "NORMAL": 10
          },
          "indices": 11,
          "material": 3
        }
      ]
    },
    {
      "primitives": [
        {
          "mode": 4,
          "attributes": {
            "POSITION": 0,
            "NORMAL": 1
          },
          "indices": 2,
          "material": 4
        }
      ]
    }
  ],
  "extensions": {
    "KHR_lights_punctual": {
      "lights": [
        {
          "name": "PointLight",
          "color": [
            1,
            1,
            1
          ],
          "intensity": 1,
          "type": "point"
        }
      ]
    }
  },
  "extensionsUsed": [
    "KHR_lights_punctual"
  ]
}